<svg width="94" height="94" viewBox="0 0 94 94" fill="none" xmlns="http://www.w3.org/2000/svg">
<path fill-rule="evenodd" clip-rule="evenodd" d="M50.9167 73.6689C50.9167 74.0323 51.2875 74.2539 51.6234 74.1153C54.6569 72.8632 67.2633 68.0704 85.7003 66.6193C85.9611 66.5987 86.1667 66.4072 86.1667 66.1456C86.1667 61.6871 86.1667 24.7826 86.1667 20.0765C86.1667 19.8003 85.9486 19.5845 85.6725 19.5908C82.7202 19.6586 67.0076 20.3447 51.2152 27.2848C51.0343 27.3643 50.9167 27.5143 50.9167 27.7119C50.9167 31.3801 50.9167 67.9589 50.9167 73.6689Z" fill="#00935E"/>
<path opacity="0.3" fill-rule="evenodd" clip-rule="evenodd" d="M43.0833 73.6689C43.0833 74.0323 42.7125 74.2539 42.3766 74.1153C39.3431 72.8632 26.7367 68.0704 8.29963 66.6193C8.03884 66.5987 7.83329 66.4072 7.83329 66.1456C7.83329 61.6871 7.83329 24.7826 7.83329 20.0765C7.83329 19.8003 8.0514 19.5845 8.32747 19.5908C11.2798 19.6586 26.9923 20.3447 42.7848 27.2848C42.9657 27.3643 43.0833 27.5143 43.0833 27.7119C43.0833 31.3801 43.0833 67.9589 43.0833 73.6689Z" fill="#00935E"/>
</svg>
