<svg width="70" height="70" viewBox="0 0 70 70" fill="none" xmlns="http://www.w3.org/2000/svg">
<path opacity="0.3" fill-rule="evenodd" clip-rule="evenodd" d="M23.3333 8.75H13.6667C12.5621 8.75 11.6667 9.64543 11.6667 10.75V65.0833C11.6667 66.1879 12.5621 67.0833 13.6667 67.0833H56.3333C57.4379 67.0833 58.3333 66.1879 58.3333 65.0833V10.75C58.3333 9.64543 57.4379 8.75 56.3333 8.75H46.6667V10.2083C46.6667 12.6246 44.7079 14.5833 42.2917 14.5833H27.7083C25.2921 14.5833 23.3333 12.6246 23.3333 10.2083V8.75Z" fill="#00935E"/>
<path fill-rule="evenodd" clip-rule="evenodd" d="M31.7188 45.9375C31.02 45.9375 30.3212 45.6579 29.7622 45.0989L24.1719 39.5086C23.0538 38.3906 23.0538 36.7135 24.1719 35.5954C25.2899 34.4774 27.1068 34.4774 28.0851 35.5954L31.7188 39.2291L40.9427 30.0052C42.0608 28.8871 43.7379 28.8871 44.8559 30.0052C45.974 31.1232 45.974 32.8003 44.8559 33.9184L33.6754 45.0989C33.1163 45.6579 32.4175 45.9375 31.7188 45.9375Z" fill="#00935E"/>
<path fill-rule="evenodd" clip-rule="evenodd" d="M32.0833 5.83329L26.75 5.83329C26.4739 5.83329 26.25 6.05715 26.25 6.33329V11.1666C26.25 11.4428 26.4739 11.6666 26.75 11.6666H43.25C43.5261 11.6666 43.75 11.4428 43.75 11.1666V6.33329C43.75 6.05715 43.5261 5.83329 43.25 5.83329L37.9167 5.83329C37.9167 4.22246 36.6108 2.91663 35 2.91663C33.3892 2.91663 32.0833 4.22246 32.0833 5.83329Z" fill="#00935E"/>
</svg>
