<svg width="66" height="66" viewBox="0 0 66 66" fill="none" xmlns="http://www.w3.org/2000/svg">
<path opacity="0.3" d="M57.0296 14.7189C58.0132 13.5617 59.7488 13.421 60.906 14.4046C62.0632 15.3883 62.2039 17.1238 61.2203 18.281L37.8453 45.781C36.8462 46.9564 35.0759 47.0802 33.9229 46.0553L21.5479 35.0553C20.4128 34.0463 20.3105 32.3081 21.3196 31.173C22.3286 30.0378 24.0668 29.9356 25.2019 30.9446L35.4755 40.0767L57.0296 14.7189Z" fill="#00935E"/>
<path d="M43.2796 17.4689C44.2632 16.3117 45.9988 16.171 47.156 17.1546C48.3132 18.1383 48.4539 19.8738 47.4703 21.031L24.0953 48.531C23.0962 49.7064 21.3259 49.8302 20.1729 48.8053L7.79794 37.8053C6.66279 36.7963 6.56054 35.0581 7.56957 33.923C8.57859 32.7878 10.3168 32.6856 11.4519 33.6946L21.7255 42.8267L43.2796 17.4689Z" fill="#00935E"/>
</svg>
