<svg width="70" height="70" viewBox="0 0 70 70" fill="none" xmlns="http://www.w3.org/2000/svg">
<circle opacity="0.3" cx="35" cy="35" r="35" fill="#00935E"/>
<path fill-rule="evenodd" clip-rule="evenodd" d="M19.3333 16.8334C18.5049 16.8334 17.8333 17.5049 17.8333 18.3334V19.75C17.8333 20.5785 18.5049 21.25 19.3333 21.25H24.4583V46.25C24.4583 47.0785 25.1299 47.75 25.9583 47.75H26.6667V48.4584C26.6667 49.2868 27.3382 49.9584 28.1667 49.9584H49.4583C50.2868 49.9584 50.9583 49.2868 50.9583 48.4584V47.0417C50.9583 46.2133 50.2868 45.5417 49.4583 45.5417H28.875V19.75V18.3334C28.875 17.5049 28.2034 16.8334 27.375 16.8334H25.9583H19.3333Z" fill="#00935E"/>
<rect x="33.2917" y="23.4584" width="17.6667" height="17.6667" rx="1.5" fill="#00935E"/>
<path fill-rule="evenodd" clip-rule="evenodd" d="M26.6667 54.375C30.3255 54.375 33.2917 51.4089 33.2917 47.75C33.2917 44.0911 30.3255 41.125 26.6667 41.125C23.0078 41.125 20.0417 44.0911 20.0417 47.75C20.0417 51.4089 23.0078 54.375 26.6667 54.375Z" fill="#4D4D4D"/>
</svg>
