<svg width="240" height="68" viewBox="0 0 240 68" fill="none" xmlns="http://www.w3.org/2000/svg">
<path d="M8.5625 46.6641H16.0156V14.3438H23.8906V48.5859C23.8906 50.0859 23.3125 51.3672 22.1562 52.4297C21.0156 53.4766 19.6562 54 18.0781 54H6.5C4.92188 54 3.5625 53.4766 2.42188 52.4297C1.26562 51.3672 0.6875 50.0859 0.6875 48.5859V14.3438H8.5625V46.6641Z" fill="#0B6E4F"/>
<path d="M30.0781 14.3438H51.0781V21.6797H37.9531V30.4922H48.875V37.8516H37.9531V54H30.0781V14.3438Z" fill="#0B6E4F"/>
<path d="M62.0938 46.6641H65.8203C68.3047 46.6641 69.5469 45.8047 69.5469 44.0859V40.4062C69.5469 39.6875 69.2656 39.0781 68.7031 38.5781C68.1406 38.0938 67.4844 37.8516 66.7344 37.8516H62.0938V46.6641ZM62.0938 21.6797V30.4922H65.7266C66.4922 30.4922 67.1562 30.25 67.7188 29.7656C68.2969 29.25 68.5859 28.6406 68.5859 27.9375V21.6797H62.0938ZM54.2188 14.3438H70.6016C72.1953 14.3438 73.5703 14.8672 74.7266 15.9141C75.8828 16.9766 76.4609 18.2578 76.4609 19.7578V27.9375C76.4609 30.3281 75.6016 32.2812 73.8828 33.7969C76.2422 35.3594 77.4219 37.5625 77.4219 40.4062V44.0859C77.4219 47.1172 76.2656 49.5547 73.9531 51.3984C71.7812 53.1328 69.0703 54 65.8203 54H54.2188V14.3438Z" fill="#0B6E4F"/>
<path d="M94.7188 14.3438H115.719V21.6797H102.594V30.4922H113.516V37.8516H102.594V54H94.7188V14.3438Z" fill="#0B6E4F"/>
<path d="M128.258 39.3984H131.891L130.062 23.3438L128.258 39.3984ZM126.898 46.3594L125.375 54H117.805L125.117 16.3359H135.055L142.344 54H134.75L133.273 46.3594H126.898Z" fill="#0B6E4F"/>
<path d="M158.586 33.6094C159.305 33.6094 159.93 33.3672 160.461 32.8828C160.992 32.4297 161.258 31.8594 161.258 31.1719V23.2969H154.18V33.6094H158.586ZM154.18 40.5703V54H146.703V16.3359H163.227C164.727 16.3359 166.016 16.8281 167.094 17.8125C168.203 18.8281 168.758 20.0469 168.758 21.4688V31.1719C168.758 33.6406 167.797 35.6094 165.875 37.0781C167.797 38.5469 168.758 40.5312 168.758 43.0312V54H161.258V43.0312C161.258 42.3438 160.992 41.7578 160.461 41.2734C159.93 40.8047 159.305 40.5703 158.586 40.5703H154.18Z" fill="#0B6E4F"/>
<path d="M210.43 16.3359V54H202.93V29.1797L197.727 54H188.633L183.383 29.1797V54H175.906V16.3359H186.289L193.18 46.9453L200.047 16.3359H210.43Z" fill="#0B6E4F"/>
<path d="M231.852 23.2969H224.773V29.25C224.773 30.8594 225.953 31.6641 228.312 31.6641C231.406 31.6641 233.984 32.4922 236.047 34.1484C238.25 35.8984 239.352 38.2109 239.352 41.0859V48.8672C239.352 50.2891 238.797 51.5 237.688 52.5C236.609 53.5 235.32 54 233.82 54H222.828C221.328 54 220.031 53.5 218.938 52.5C217.844 51.5 217.297 50.2891 217.297 48.8672V41.2734H224.773V47.0391H231.852V41.0859C231.852 39.4609 230.672 38.6484 228.312 38.6484C225.234 38.6484 222.664 37.8281 220.602 36.1875C218.398 34.4375 217.297 32.125 217.297 29.25V21.4688C217.297 20.0469 217.844 18.8281 218.938 17.8125C220.031 16.8281 221.328 16.3359 222.828 16.3359H233.82C235.32 16.3359 236.609 16.8281 237.688 17.8125C238.797 18.8281 239.352 20.0469 239.352 21.4688V29.0391H231.852V23.2969Z" fill="#0B6E4F"/>
<path fill-rule="evenodd" clip-rule="evenodd" d="M239 68H1V60H239V68Z" fill="#0B6E4F"/>
<path fill-rule="evenodd" clip-rule="evenodd" d="M239 8H1V0H239V8Z" fill="#0B6E4F"/>
</svg>
