<svg width="95" height="94" viewBox="0 0 95 94" fill="none" xmlns="http://www.w3.org/2000/svg">
<path fill-rule="evenodd" clip-rule="evenodd" d="M13.3662 13.9156C12.8327 13.7726 12.2844 14.0892 12.1414 14.6227L0.494562 58.0893C0.35162 58.6228 0.668201 59.1711 1.20167 59.3141L78.7172 80.0843C79.2507 80.2272 79.799 79.9107 79.942 79.3772L91.5888 35.9105C91.7318 35.3771 91.4152 34.8287 90.8817 34.6858L13.3662 13.9156ZM61.1745 51.0547C58.9351 59.4123 50.3445 64.3721 41.9868 62.1327C33.6292 59.8933 28.6694 51.3027 30.9088 42.945C33.1482 34.5874 41.7389 29.6276 50.0965 31.867C58.4541 34.1065 63.4139 42.6971 61.1745 51.0547Z" fill="#00FFA3"/>
<path fill-rule="evenodd" clip-rule="evenodd" d="M5.91666 23.5C5.36437 23.5 4.91666 23.9477 4.91666 24.5V69.5C4.91666 70.0523 5.36437 70.5 5.91666 70.5H86.1667C86.7189 70.5 87.1667 70.0523 87.1667 69.5V24.5C87.1667 23.9477 86.719 23.5 86.1667 23.5H5.91666ZM61.7083 47C61.7083 55.6525 54.6941 62.6667 46.0417 62.6667C37.3892 62.6667 30.375 55.6525 30.375 47C30.375 38.3475 37.3892 31.3333 46.0417 31.3333C54.6941 31.3333 61.7083 38.3475 61.7083 47ZM46.0417 54.8333C50.3679 54.8333 53.875 51.3262 53.875 47C53.875 42.6738 50.3679 39.1667 46.0417 39.1667C41.7154 39.1667 38.2083 42.6738 38.2083 47C38.2083 51.3262 41.7154 54.8333 46.0417 54.8333Z" fill="white"/>
</svg>
