<svg width="72" height="72" viewBox="0 0 72 72" fill="none" xmlns="http://www.w3.org/2000/svg">
<path opacity="0.3" fill-rule="evenodd" clip-rule="evenodd" d="M36 60.0656L25.4204 65.1859L20.6072 54.4631L9.21146 51.585L12.4168 40.277L5.5372 30.7472L15.2613 24.1452L16.1168 12.4228L27.8096 13.6159L36 5.18591L44.1903 13.6159L55.8832 12.4228L56.7387 24.1452L66.4628 30.7472L59.5832 40.277L62.7885 51.585L51.3928 54.4631L46.5796 65.1859L36 60.0656Z" fill="#00935E"/>
<path fill-rule="evenodd" clip-rule="evenodd" d="M42.2672 25.8076L25.0824 44.1043L29.126 48.1479L46.3109 29.8513L42.2672 25.8076Z" fill="#00935E"/>
<path opacity="0.8" fill-rule="evenodd" clip-rule="evenodd" d="M32.563 27.5262C32.563 30.3758 30.2565 32.6816 27.4075 32.6816C24.5638 32.6816 22.2521 30.3758 22.2521 27.5262C22.2521 24.6766 24.5638 22.3707 27.4075 22.3707C30.2565 22.3707 32.563 24.6766 32.563 27.5262Z" fill="#00935E"/>
<path opacity="0.8" fill-rule="evenodd" clip-rule="evenodd" d="M44.5924 49.8665C41.7486 49.8665 39.4369 47.5606 39.4369 44.711C39.4369 41.8562 41.7486 39.5555 44.5924 39.5555C47.4414 39.5555 49.7478 41.8562 49.7478 44.711C49.7478 47.5606 47.4414 49.8665 44.5924 49.8665Z" fill="#00935E"/>
</svg>
