<svg width="94" height="94" viewBox="0 0 94 94" fill="none" xmlns="http://www.w3.org/2000/svg">
<path fill-rule="evenodd" clip-rule="evenodd" d="M31.3333 20.3509C31.3333 19.988 31.7077 19.746 32.0385 19.8949L91.2587 46.544C91.6518 46.7209 91.6518 47.279 91.2587 47.4559L32.0385 74.105C31.7077 74.2539 31.3333 74.0119 31.3333 73.649V51.5703L80.0842 46.9999L31.3333 42.4295V20.3509Z" fill="white"/>
<path opacity="0.8" fill-rule="evenodd" clip-rule="evenodd" d="M13.25 23.5C12.4216 23.5 11.75 24.1716 11.75 25V29.8333C11.75 30.6618 12.4216 31.3333 13.25 31.3333H22C22.8284 31.3333 23.5 30.6618 23.5 29.8333V25C23.5 24.1716 22.8284 23.5 22 23.5H13.25ZM0 44.5833C0 43.7549 0.671573 43.0833 1.5 43.0833H22C22.8284 43.0833 23.5 43.7549 23.5 44.5833V49.4167C23.5 50.2451 22.8284 50.9167 22 50.9167H1.5C0.671573 50.9167 0 50.2451 0 49.4167V44.5833ZM11.75 64.1667C11.75 63.3382 12.4216 62.6667 13.25 62.6667H22C22.8284 62.6667 23.5 63.3382 23.5 64.1667V69C23.5 69.8284 22.8284 70.5 22 70.5H13.25C12.4216 70.5 11.75 69.8284 11.75 69V64.1667Z" fill="#00FFA3"/>
</svg>
