<svg width="70" height="70" viewBox="0 0 70 70" fill="none" xmlns="http://www.w3.org/2000/svg">
<circle cx="35" cy="35" r="35" fill="#B3DECF"/>
<path fill-rule="evenodd" clip-rule="evenodd" d="M30.9336 51.9456L18.0454 39.0574C16.6515 37.6552 16.6515 35.3906 18.0454 33.9884L34.2255 18.081C34.8979 17.42 35.803 17.0496 36.7459 17.0496H49.6548C51.6403 17.0496 53.2499 18.6591 53.2499 20.6446V33.5166C53.2499 34.4813 52.8621 35.4056 52.1739 36.0815L36.0206 51.9456C35.3463 52.6207 34.4313 53 33.4771 53C32.523 53 31.608 52.6207 30.9336 51.9456ZM48.4565 25.438C48.4565 27.4235 46.8469 29.0331 44.8615 29.0331C42.876 29.0331 41.2664 27.4235 41.2664 25.438C41.2664 23.4525 42.876 21.843 44.8615 21.843C46.8469 21.843 48.4565 23.4525 48.4565 25.438Z" fill="#00935E"/>
</svg>
